<mxfile host="app.diagrams.net" modified="2022-07-04T15:33:07.798Z" agent="5.0 (Macintosh; Intel Mac OS X 10_15_7) AppleWebKit/537.36 (KHTML, like Gecko) Chrome/103.0.0.0 Safari/537.36" etag="aKtcm1PdkSMXoF1fiF6K" version="20.0.4" type="github">
  <diagram id="k93ECtrDF0TfITE5ERev" name="Page-1">
    <mxGraphModel dx="1298" dy="728" grid="1" gridSize="10" guides="1" tooltips="1" connect="1" arrows="1" fold="1" page="1" pageScale="1" pageWidth="850" pageHeight="1100" math="0" shadow="0">
      <root>
        <mxCell id="0" />
        <mxCell id="1" parent="0" />
        <mxCell id="BoFArVrPd_8SCMsX8ILs-5" style="edgeStyle=orthogonalEdgeStyle;rounded=0;orthogonalLoop=1;jettySize=auto;html=1;exitX=1;exitY=0.5;exitDx=0;exitDy=0;entryX=0;entryY=0.5;entryDx=0;entryDy=0;fontSize=14;startArrow=classic;startFill=1;" edge="1" parent="1" source="BoFArVrPd_8SCMsX8ILs-1" target="BoFArVrPd_8SCMsX8ILs-2">
          <mxGeometry relative="1" as="geometry" />
        </mxCell>
        <mxCell id="BoFArVrPd_8SCMsX8ILs-1" value="API Handler/&lt;br style=&quot;font-size: 14px;&quot;&gt;Controller" style="rounded=0;whiteSpace=wrap;html=1;fontSize=14;" vertex="1" parent="1">
          <mxGeometry x="120" y="280" width="120" height="60" as="geometry" />
        </mxCell>
        <mxCell id="BoFArVrPd_8SCMsX8ILs-6" style="edgeStyle=orthogonalEdgeStyle;rounded=0;orthogonalLoop=1;jettySize=auto;html=1;exitX=1;exitY=0.5;exitDx=0;exitDy=0;entryX=0;entryY=0.5;entryDx=0;entryDy=0;fontSize=14;startArrow=classic;startFill=1;" edge="1" parent="1" source="BoFArVrPd_8SCMsX8ILs-2" target="BoFArVrPd_8SCMsX8ILs-3">
          <mxGeometry relative="1" as="geometry" />
        </mxCell>
        <mxCell id="BoFArVrPd_8SCMsX8ILs-9" style="rounded=0;orthogonalLoop=1;jettySize=auto;html=1;entryX=0.25;entryY=1;entryDx=0;entryDy=0;fontSize=14;startArrow=classic;startFill=1;endArrow=none;endFill=0;" edge="1" parent="1" source="BoFArVrPd_8SCMsX8ILs-2" target="BoFArVrPd_8SCMsX8ILs-8">
          <mxGeometry relative="1" as="geometry" />
        </mxCell>
        <mxCell id="BoFArVrPd_8SCMsX8ILs-2" value="Domain Service" style="rounded=0;whiteSpace=wrap;html=1;fontSize=14;" vertex="1" parent="1">
          <mxGeometry x="340" y="280" width="120" height="60" as="geometry" />
        </mxCell>
        <mxCell id="BoFArVrPd_8SCMsX8ILs-7" style="edgeStyle=orthogonalEdgeStyle;rounded=0;orthogonalLoop=1;jettySize=auto;html=1;exitX=1;exitY=0.5;exitDx=0;exitDy=0;fontSize=14;startArrow=classic;startFill=1;" edge="1" parent="1" source="BoFArVrPd_8SCMsX8ILs-3" target="BoFArVrPd_8SCMsX8ILs-4">
          <mxGeometry relative="1" as="geometry" />
        </mxCell>
        <mxCell id="BoFArVrPd_8SCMsX8ILs-10" style="edgeStyle=none;rounded=0;orthogonalLoop=1;jettySize=auto;html=1;exitX=0.25;exitY=0;exitDx=0;exitDy=0;fontSize=14;startArrow=classic;startFill=1;endArrow=none;endFill=0;" edge="1" parent="1" source="BoFArVrPd_8SCMsX8ILs-3" target="BoFArVrPd_8SCMsX8ILs-8">
          <mxGeometry relative="1" as="geometry" />
        </mxCell>
        <mxCell id="BoFArVrPd_8SCMsX8ILs-3" value="Repository" style="rounded=0;whiteSpace=wrap;html=1;fontSize=14;" vertex="1" parent="1">
          <mxGeometry x="560" y="280" width="120" height="60" as="geometry" />
        </mxCell>
        <mxCell id="BoFArVrPd_8SCMsX8ILs-4" value="Datastore" style="rounded=0;whiteSpace=wrap;html=1;fontSize=14;" vertex="1" parent="1">
          <mxGeometry x="780" y="280" width="120" height="60" as="geometry" />
        </mxCell>
        <mxCell id="BoFArVrPd_8SCMsX8ILs-8" value="Domain Entity" style="rounded=0;whiteSpace=wrap;html=1;fontSize=14;" vertex="1" parent="1">
          <mxGeometry x="450" y="100" width="120" height="60" as="geometry" />
        </mxCell>
        <mxCell id="BoFArVrPd_8SCMsX8ILs-12" style="edgeStyle=none;rounded=0;orthogonalLoop=1;jettySize=auto;html=1;exitX=0.5;exitY=1;exitDx=0;exitDy=0;entryX=0.5;entryY=0;entryDx=0;entryDy=0;fontSize=14;startArrow=classic;startFill=1;endArrow=classic;endFill=1;" edge="1" parent="1" source="BoFArVrPd_8SCMsX8ILs-11" target="BoFArVrPd_8SCMsX8ILs-1">
          <mxGeometry relative="1" as="geometry" />
        </mxCell>
        <mxCell id="BoFArVrPd_8SCMsX8ILs-11" value="Client" style="rounded=0;whiteSpace=wrap;html=1;fontSize=14;" vertex="1" parent="1">
          <mxGeometry x="120" y="110" width="120" height="60" as="geometry" />
        </mxCell>
      </root>
    </mxGraphModel>
  </diagram>
</mxfile>
